<?xml version="1.0" encoding="UTF-8" standalone="no"?>
<!-- Created with Inkscape (http://www.inkscape.org/) -->

<svg
   width="99.392448mm"
   height="56.282955mm"
   viewBox="0 0 99.392448 56.282955"
   version="1.1"
   id="svg1"
   inkscape:version="1.4 (86a8ad7, 2024-10-11)"
   sodipodi:docname="plume_logo.svg"
   inkscape:export-filename="plume-engine\dist\plume.png"
   inkscape:export-xdpi="500"
   inkscape:export-ydpi="500"
   xml:space="preserve"
   xmlns:inkscape="http://www.inkscape.org/namespaces/inkscape"
   xmlns:sodipodi="http://sodipodi.sourceforge.net/DTD/sodipodi-0.dtd"
   xmlns:xlink="http://www.w3.org/1999/xlink"
   xmlns="http://www.w3.org/2000/svg"
   xmlns:svg="http://www.w3.org/2000/svg"><sodipodi:namedview
     id="namedview1"
     pagecolor="#505050"
     bordercolor="#eeeeee"
     borderopacity="1"
     inkscape:showpageshadow="0"
     inkscape:pageopacity="0"
     inkscape:pagecheckerboard="0"
     inkscape:deskcolor="#505050"
     inkscape:document-units="mm"
     inkscape:zoom="1.4142136"
     inkscape:cx="46.315494"
     inkscape:cy="179.95868"
     inkscape:window-width="2560"
     inkscape:window-height="1351"
     inkscape:window-x="1911"
     inkscape:window-y="-9"
     inkscape:window-maximized="1"
     inkscape:current-layer="layer2"
     inkscape:export-bgcolor="#ffffff00" /><defs
     id="defs1"><linearGradient
       id="linearGradient12"
       inkscape:collect="always"><stop
         style="stop-color:#000000;stop-opacity:1;"
         offset="0"
         id="stop12" /><stop
         style="stop-color:#00ccff;stop-opacity:1;"
         offset="1"
         id="stop13" /></linearGradient><inkscape:path-effect
       effect="bspline"
       id="path-effect12"
       is_visible="true"
       lpeversion="1.3"
       weight="33.333333"
       steps="2"
       helper_size="0"
       apply_no_weight="true"
       apply_with_weight="true"
       only_selected="false"
       uniform="false" /><inkscape:path-effect
       effect="bspline"
       id="path-effect11"
       is_visible="true"
       lpeversion="1.3"
       weight="33.333333"
       steps="2"
       helper_size="0"
       apply_no_weight="true"
       apply_with_weight="true"
       only_selected="false"
       uniform="false" /><linearGradient
       id="linearGradient10"
       inkscape:collect="always"><stop
         style="stop-color:#ffffff;stop-opacity:1;"
         offset="0"
         id="stop10" /><stop
         style="stop-color:#00ccff;stop-opacity:1;"
         offset="1"
         id="stop11" /></linearGradient><inkscape:path-effect
       effect="bspline"
       id="path-effect8"
       is_visible="true"
       lpeversion="1.3"
       weight="33.333333"
       steps="2"
       helper_size="0"
       apply_no_weight="true"
       apply_with_weight="true"
       only_selected="false"
       uniform="false" /><inkscape:path-effect
       effect="bspline"
       id="path-effect5"
       is_visible="true"
       lpeversion="1.3"
       weight="33.333333"
       steps="2"
       helper_size="0"
       apply_no_weight="true"
       apply_with_weight="true"
       only_selected="false"
       uniform="false" /><inkscape:path-effect
       effect="powerstroke"
       message=""
       id="path-effect3"
       is_visible="true"
       lpeversion="1.3"
       scale_width="1"
       interpolator_type="CubicBezierJohan"
       interpolator_beta="0.2"
       start_linecap_type="zerowidth"
       end_linecap_type="zerowidth"
       offset_points="0,2.7960424"
       linejoin_type="extrp_arc"
       miter_limit="4"
       not_jump="false"
       sort_points="true" /><inkscape:path-effect
       effect="bspline"
       id="path-effect2"
       is_visible="true"
       lpeversion="1.3"
       weight="33.333333"
       steps="2"
       helper_size="0"
       apply_no_weight="true"
       apply_with_weight="true"
       only_selected="false"
       uniform="false" /><inkscape:path-effect
       effect="bspline"
       id="path-effect3-6-92-5-3-0-6-1-7-8-7-9-7-0"
       is_visible="true"
       lpeversion="1.3"
       weight="33.333333"
       steps="2"
       helper_size="0"
       apply_no_weight="true"
       apply_with_weight="true"
       only_selected="false"
       uniform="false" /><inkscape:path-effect
       effect="bspline"
       id="path-effect19-9-2"
       is_visible="true"
       lpeversion="1.3"
       weight="33.333333"
       steps="2"
       helper_size="0"
       apply_no_weight="true"
       apply_with_weight="true"
       only_selected="false"
       uniform="false" /><inkscape:path-effect
       effect="bspline"
       id="path-effect3-6-92-5-3-0-6-1-7-8-7-9-7-0-3"
       is_visible="true"
       lpeversion="1.3"
       weight="33.333333"
       steps="2"
       helper_size="0"
       apply_no_weight="true"
       apply_with_weight="true"
       only_selected="false"
       uniform="false" /><inkscape:path-effect
       effect="bspline"
       id="path-effect19-9-2-2"
       is_visible="true"
       lpeversion="1.3"
       weight="33.333333"
       steps="2"
       helper_size="0"
       apply_no_weight="true"
       apply_with_weight="true"
       only_selected="false"
       uniform="false" /><inkscape:path-effect
       effect="bspline"
       id="path-effect3-6-92-5-3-0-6-1-7-8-7-9-7-0-38"
       is_visible="true"
       lpeversion="1.3"
       weight="33.333333"
       steps="2"
       helper_size="0"
       apply_no_weight="true"
       apply_with_weight="true"
       only_selected="false"
       uniform="false" /><inkscape:path-effect
       effect="bspline"
       id="path-effect19-9-2-7"
       is_visible="true"
       lpeversion="1.3"
       weight="33.333333"
       steps="2"
       helper_size="0"
       apply_no_weight="true"
       apply_with_weight="true"
       only_selected="false"
       uniform="false" /><inkscape:path-effect
       effect="fill_between_many"
       method="bsplinespiro"
       autoreverse="false"
       close="false"
       join="false"
       linkedpaths="#path2,0,1"
       id="path-effect4" /><linearGradient
       inkscape:collect="always"
       xlink:href="#linearGradient10"
       id="linearGradient11"
       x1="39.460011"
       y1="111.11761"
       x2="36.573681"
       y2="131.65491"
       gradientUnits="userSpaceOnUse" /><linearGradient
       inkscape:collect="always"
       xlink:href="#linearGradient12"
       id="linearGradient13"
       x1="839.46107"
       y1="-72.211409"
       x2="911.4902"
       y2="-72.211409"
       gradientUnits="userSpaceOnUse" /></defs><g
     inkscape:groupmode="layer"
     id="layer2"
     inkscape:label="Layer 2"
     transform="translate(-831.32271,122.96761)"><path
       style="fill:url(#linearGradient11);stroke:#000000;stroke-width:1.18621;stroke-linejoin:round;stroke-miterlimit:3.4;stroke-opacity:1"
       d="m 34.610817,142.49208 c 2.699209,-3.35224 5.398381,-6.70444 6.887549,-10.74579 1.489167,-4.04134 1.768249,-8.77159 1.893415,-11.83694 0.125165,-3.06534 0.09641,-4.46565 0.06765,-5.86597 -0.834751,-0.48814 -1.669502,-0.97627 -2.504253,-1.46441 0.915767,-0.12621 1.831536,-0.25242 2.747302,-0.37863 1.29777,-3.97332 2.595541,-7.94664 3.893311,-11.91996 -5.895607,4.36212 -11.791216,8.72425 -15.239678,13.80043 -3.448462,5.07618 -4.449782,10.86642 -3.666142,15.72064 0.78364,4.85422 3.352243,8.77243 5.920844,12.69063 z"
       id="path2-9-2-9-6-66-1-4-9-3-3-5-0-1"
       sodipodi:nodetypes="cccccccssc"
       transform="matrix(-0.83891134,-0.03263686,-0.03235711,0.84590564,956.73892,-202.78026)"
       inkscape:original-d="m 34.610817,142.49208 c 0,0 5.398383,-6.70444 8.097626,-10.05673 0.27909,-4.7304 0.558172,-9.46065 0.83726,-14.19101 -0.02876,-1.40033 -0.08627,-4.20096 -0.08627,-4.20096 -0.834749,-0.48814 -2.504253,-1.46441 -2.504253,-1.46441 0,0 1.831536,-0.25242 2.747302,-0.37863 0,0 2.595541,-7.94664 3.893311,-11.91996 0,0 -11.791214,8.72425 -17.686821,13.08637 -1.001319,5.79024 -2.002639,11.58048 -3.003958,17.37072 2.568601,3.9182 7.705804,11.75461 7.705803,11.75461 z"
       inkscape:path-effect="#path-effect3-6-92-5-3-0-6-1-7-8-7-9-7-0-38" /><path
       style="opacity:1;fill:none;stroke:url(#linearGradient13);stroke-width:1.33863;stroke-linecap:round;stroke-linejoin:round;stroke-miterlimit:3.4;stroke-dasharray:none;stroke-opacity:0.994652"
       d="m 839.32535,-70.499014 c 1.10541,0.87634 2.21082,1.75268 6.7172,1.138061 4.50639,-0.614618 12.41328,-2.720065 19.94297,-2.587447 7.52968,0.132619 14.68127,2.503287 21.78003,3.363354 7.09875,0.860067 14.14383,0.209427 17.81227,-0.613808 3.66844,-0.823236 3.95987,-1.818996 4.36172,-3.350502 0.40186,-1.531505 0.91412,-3.598673 1.4264,-5.665885"
       id="path11"
       inkscape:path-effect="#path-effect12"
       inkscape:original-d="m 839.32535,-70.499014 c 1.10541,0.87634 2.21082,1.75268 3.31622,2.629017 7.90737,-2.105575 15.81426,-4.211022 23.72162,-6.316592 7.15201,2.370807 14.3036,4.741477 21.45562,7.112287 7.04549,-0.650677 14.09057,-1.301317 21.13602,-1.95199 0.29143,-0.995799 0.58285,-1.99156 0.87429,-2.987353 0.51227,-2.067218 1.02454,-4.134385 1.53682,-6.201596"
       sodipodi:nodetypes="ccccccc"
       transform="matrix(1.1200118,0,0,1.1210873,-97.611451,4.5489289)" /><path
       style="font-size:38.5273px;line-height:1.25;font-family:Montez;-inkscape-font-specification:Montez;letter-spacing:0px;word-spacing:0px;stroke-width:0.264583"
       d="m 870.81983,-81.526125 q -0.60199,1.241603 -1.6931,1.975277 -1.0911,0.714862 -2.4832,0.714862 -1.14754,0 -2.05053,-0.69605 -0.90298,-0.69605 -1.59903,-1.824779 -0.67724,-1.12873 -1.16635,-2.539642 -0.47031,-1.429724 -0.79011,-2.897072 -0.301,-1.467349 -0.4515,-2.821824 -0.13168,-1.373288 -0.13168,-2.389144 0,-1.241603 0.13168,-2.727763 0.13169,-1.486161 0.43268,-2.991134 0.301,-1.523784 0.7713,-2.953506 0.48912,-1.42973 1.16636,-2.52083 0.69605,-1.10992 1.59903,-1.76834 0.90298,-0.67724 2.06934,-0.67724 0.99704,0 1.61784,0.58317 0.6208,0.58318 0.97824,1.44854 0.35743,0.84655 0.4703,1.80597 0.13168,0.95942 0.13168,1.7119 0,2.031718 -0.48911,4.006994 -0.47031,1.956465 -1.31685,3.705996 -0.82774,1.730718 -1.95647,3.160442 -1.12873,1.410912 -2.42677,2.370332 0.26337,1.260415 0.62081,2.464393 0.37624,1.185166 0.90298,2.125774 0.52674,0.921796 1.20398,1.504973 0.69605,0.564365 1.58022,0.564365 0.88417,0 1.52378,-0.357431 0.63962,-0.357431 1.18517,-1.053481 z m -7.75061,-11.607102 q -0.0188,0.413868 -0.0188,1.015857 0.0188,0.601989 0.0564,1.335663 0.0564,0.714862 0.1505,1.542597 0.0941,0.827735 0.24456,1.693094 1.26041,-1.128729 2.14459,-2.502017 0.88417,-1.373287 1.44853,-2.953509 0.56437,-1.599033 0.80892,-3.348564 0.26337,-1.768343 0.26337,-3.668374 0,-0.24456 -0.0188,-0.63961 0,-0.39506 -0.0564,-0.84655 -0.0564,-0.45149 -0.16931,-0.90298 -0.0941,-0.45149 -0.28219,-0.80892 -0.16931,-0.37625 -0.45149,-0.60199 -0.26337,-0.24456 -0.63961,-0.24456 -0.71486,0 -1.26042,0.71486 -0.52674,0.69605 -0.92179,1.78716 -0.37624,1.0911 -0.63961,2.407952 -0.24456,1.316851 -0.39506,2.539642 -0.1505,1.203978 -0.20693,2.163398 -0.0564,0.95942 -0.0564,1.316851 z m 22.5934,10.986301 q -0.3198,0.658426 -0.86536,1.260415 -0.54555,0.601989 -1.22279,1.091105 -0.67723,0.470304 -1.42972,0.752486 -0.75249,0.282183 -1.48616,0.282183 -1.01586,0 -1.6931,-0.620801 -0.65842,-0.60199 -0.97823,-1.467349 -0.73367,0.733674 -1.61784,1.22279 -0.88417,0.470304 -1.95647,0.470304 -0.95942,0 -1.7119,-0.338618 -0.73368,-0.357431 -1.22279,-0.959421 -0.48912,-0.601989 -0.75249,-1.392099 -0.24456,-0.790111 -0.24456,-1.693095 0,-1.015856 0.28218,-1.975276 0.28219,-0.978233 0.79011,-1.843592 0.50793,-0.884171 1.20398,-1.636658 0.69605,-0.752486 1.50497,-1.335663 l 0.22575,0.169309 q -0.79011,1.12873 -1.26041,2.502018 -0.47031,1.354475 -0.47031,2.765387 0,0.601989 0.13169,1.279227 0.13168,0.677237 0.43268,1.260414 0.30099,0.583177 0.79011,0.978233 0.50793,0.376243 1.26041,0.376243 0.63962,0 1.22279,-0.206934 0.58318,-0.225746 1.12873,-0.601989 -0.0376,-0.225746 -0.0564,-0.43268 -0.0188,-0.225746 -0.0188,-0.451491 0,-0.902984 0.26337,-1.956465 0.26337,-1.053481 0.69605,-2.08815 0.43268,-1.053481 0.97824,-1.994089 0.56436,-0.95942 1.14754,-1.636657 l 0.22574,0.169309 q -0.43268,1.448536 -0.71486,2.991133 -0.28218,1.542597 -0.28218,3.04757 0,0.677238 0.0752,1.316851 0.0941,0.620802 0.35743,1.12873 0.28218,0.489116 0.7713,0.79011 0.48911,0.282183 1.29804,0.282183 0.90298,0 1.69309,-0.451492 0.79011,-0.470304 1.3921,-1.128729 z m 21.14487,0 q -0.33862,0.677238 -0.80892,1.316851 -0.47031,0.620802 -1.05348,1.109918 -0.58318,0.489116 -1.29804,0.771298 -0.69605,0.300995 -1.52379,0.300995 -1.16635,0 -1.90003,-0.790111 -0.73367,-0.790111 -1.20397,-2.050525 -0.4515,-1.279227 -0.71487,-2.878261 -0.26337,-1.617845 -0.45149,-3.254503 -0.43268,0.771298 -0.80892,1.617846 -0.35743,0.827735 -0.69605,1.74953 -0.33862,0.921796 -0.67724,1.900028 -0.33862,0.978233 -0.73367,2.012901 -0.0941,0.225746 -0.20694,0.507929 -0.11287,0.26337 -0.30099,0.507928 -0.16931,0.26337 -0.41387,0.43268 -0.24456,0.169309 -0.58318,0.169309 -0.24455,0 -0.43268,-0.112873 -0.18812,-0.112873 -0.33861,-0.282182 -0.13169,-0.150498 -0.24456,-0.338619 -0.0941,-0.206934 -0.16931,-0.376243 -0.37625,-0.846547 -0.60199,-1.730719 -0.22575,-0.884171 -0.39506,-1.824779 -0.15049,-0.940608 -0.26337,-1.994089 -0.11287,-1.053481 -0.22574,-2.238647 -0.39506,0.921796 -0.71486,1.768343 -0.301,0.827735 -0.60199,1.674282 -0.28219,0.827735 -0.58318,1.730719 -0.28218,0.884171 -0.60199,1.91884 -0.0752,0.244558 -0.16931,0.52674 -0.0752,0.263371 -0.20693,0.489116 -0.11288,0.225746 -0.31981,0.376244 -0.18812,0.150497 -0.48912,0.150497 -0.48911,0 -0.71486,-0.319807 -0.22574,-0.300994 -0.37624,-0.714862 -0.22575,-0.564365 -0.43268,-1.561409 -0.20693,-1.015857 -0.37624,-2.201023 -0.16931,-1.185166 -0.26337,-2.44558 -0.0941,-1.260415 -0.0941,-2.35152 0,-1.053481 0.56437,-1.542597 0.56436,-0.507929 1.48616,-0.507929 0.0564,0 0.16931,0 0.11287,0 0.22575,0.03762 0.11287,0.01881 0.18812,0.07525 0.0941,0.05644 0.0752,0.150498 -0.16931,1.316851 -0.22575,2.502017 -0.0564,1.185166 -0.0376,2.313895 0.0188,1.109918 0.11287,2.201023 0.11287,1.072293 0.28218,2.201023 0.31981,-1.072293 0.6208,-2.050526 0.31981,-0.978232 0.65843,-1.937652 0.33862,-0.95942 0.71486,-1.937653 0.39506,-0.997044 0.84655,-2.088149 0.24456,-0.564365 0.50793,-0.790111 0.28218,-0.225746 0.71486,-0.225746 0.54555,0 0.84654,0.413868 0.31981,0.413867 0.41387,0.940608 0.1505,0.95942 0.26337,1.975276 0.11288,0.997045 0.24456,2.012901 0.13169,1.015857 0.31981,2.012901 0.18812,0.978233 0.48911,1.900028 0.37625,-0.978232 0.75249,-2.031713 0.37624,-1.072293 0.7713,-2.144586 0.39505,-1.072293 0.82773,-2.106962 0.45149,-1.034668 0.95942,-1.956464 0.24456,-0.43268 0.54556,-0.714862 0.3198,-0.300995 0.79011,-0.300995 0.26337,0 0.4703,0.131685 0.20693,0.112873 0.35743,0.319807 0.1505,0.188122 0.24456,0.43268 0.0941,0.225746 0.13168,0.470304 0.0941,0.545552 0.16931,1.410912 0.0941,0.865359 0.22575,1.843591 0.1505,0.978232 0.35743,1.975277 0.20693,0.978232 0.52674,1.787155 0.31981,0.790111 0.7713,1.298039 0.45149,0.507928 1.09111,0.507928 0.52674,0 1.01585,-0.188121 0.48912,-0.206934 0.9218,-0.507929 0.43268,-0.319806 0.79011,-0.714862 0.37624,-0.413867 0.67724,-0.808922 z m 11.24967,0 q -0.48912,0.714862 -1.18517,1.335663 -0.67723,0.620802 -1.50497,1.072294 -0.80892,0.451491 -1.7119,0.714862 -0.88418,0.26337 -1.78716,0.26337 -1.27923,0 -2.38914,-0.338619 -1.10992,-0.319807 -1.93766,-0.997045 -0.82773,-0.677237 -1.29804,-1.693094 -0.4703,-1.034669 -0.4703,-2.407956 0,-1.354476 0.48912,-2.52083 0.50793,-1.185166 1.37328,-2.050525 0.88418,-0.884171 2.06934,-1.3921 1.18517,-0.507928 2.53964,-0.507928 0.63962,0 1.18517,0.188122 0.56436,0.169309 0.97823,0.52674 0.41387,0.338619 0.63962,0.846547 0.24455,0.507929 0.24455,1.166354 0,0.790111 -0.3198,1.3921 -0.31981,0.601989 -0.84655,1.053481 -0.52674,0.451492 -1.20398,0.752486 -0.65842,0.300995 -1.3921,0.489116 -0.71486,0.188122 -1.42972,0.282183 -0.69605,0.07525 -1.27923,0.07525 h -0.45149 q 0.24456,1.711907 1.35447,2.61489 1.10992,0.902984 3.06639,0.902984 1.3921,0 2.70895,-0.489116 1.33566,-0.489116 2.40795,-1.354475 z m -9.7447,-2.313895 h 0.47031 q 0.67723,0 1.3921,-0.206934 0.71486,-0.225746 1.27922,-0.639614 0.58318,-0.432679 0.95942,-1.05348 0.37625,-0.620802 0.37625,-1.410912 0,-0.771299 -0.33862,-1.279227 -0.31981,-0.507929 -1.12873,-0.507929 -0.82774,0 -1.41091,0.507929 -0.56437,0.489116 -0.9218,1.22279 -0.35743,0.714862 -0.52674,1.523785 -0.1505,0.790111 -0.1505,1.410912 z"
       id="text1-24-9-1-2-6-5-8-6-7-6-9-1-2"
       transform="scale(0.99959655,1.0004036)"
       aria-label="lume" /><path
       style="font-size:46.519px;line-height:1.25;font-family:Montez;-inkscape-font-specification:Montez;letter-spacing:0px;word-spacing:0px;stroke-width:0.264581"
       d="m 843.77072,-73.833168 c 0,0.424001 -0.23472,0.636002 -0.70415,0.636002 -0.30285,0 -0.59057,-0.06057 -0.86314,-0.181715 -0.27257,-0.106 -0.52243,-0.227143 -0.74958,-0.36343 -0.46943,-0.257429 -0.88585,-0.636002 -1.24928,-1.135717 -0.34829,-0.499716 -0.65115,-1.075146 -0.90858,-1.726291 -0.24229,-0.651145 -0.45429,-1.362862 -0.636,-2.13515 -0.16657,-0.757145 -0.30286,-1.529433 -0.40886,-2.316864 -0.106,-0.787431 -0.18929,-1.567291 -0.24986,-2.339579 -0.0605,-0.772288 -0.0984,-1.491576 -0.11357,-2.157864 -0.43915,-0.166572 -0.88586,-0.355858 -1.34015,-0.567859 -0.43914,-0.212001 -0.84043,-0.446716 -1.20386,-0.704145 -0.34829,-0.272572 -0.636,-0.560287 -0.86314,-0.863145 -0.22715,-0.318001 -0.34072,-0.651145 -0.34072,-0.999432 0,-0.272572 0.0606,-0.514858 0.18172,-0.726859 0.13629,-0.227144 0.35586,-0.340716 0.65871,-0.340716 0.25743,0 0.49972,0.06057 0.72686,0.181715 0.22715,0.106001 0.45429,0.249858 0.68143,0.431573 0.22715,0.181715 0.46186,0.393715 0.70415,0.636002 0.24229,0.227143 0.49972,0.461858 0.77229,0.704145 0,-1.544576 0.053,-3.18001 0.159,-4.906301 0.106,-1.741434 0.29529,-3.475296 0.56786,-5.201587 0.27257,-1.741437 0.63599,-3.437445 1.09028,-5.088015 0.46943,-1.65058 1.06001,-3.17244 1.77172,-4.56559 l 0.40886,0.13629 c -0.51486,2.61972 -0.89343,5.24701 -1.13571,7.881881 -0.22715,2.619723 -0.34072,5.247017 -0.34072,7.881882 0,0.969145 0.0227,1.93072 0.0681,2.884723 0.0606,0.93886 0.14389,1.87772 0.24986,2.81658 0.45429,0.181715 0.96157,0.325572 1.52186,0.431573 0.56029,0.106 1.18115,0.159 1.86258,0.159 1.15086,0 2.21843,-0.174143 3.20272,-0.52243 0.99943,-0.348287 1.90801,-0.825288 2.72573,-1.431004 0.83286,-0.620859 1.56729,-1.347719 2.20329,-2.180579 0.636,-0.832859 1.17357,-1.726291 1.61272,-2.680294 0.43915,-0.969145 0.77229,-1.968577 0.99943,-2.998295 0.22715,-1.04486 0.34072,-2.08972 0.34072,-3.134581 0,-1.029717 -0.11357,-2.074576 -0.34072,-3.134576 -0.22714,-1.07515 -0.56786,-2.11244 -1.02215,-3.11187 -0.43914,-1.01457 -0.98428,-1.96101 -1.63543,-2.8393 -0.636,-0.87829 -1.37043,-1.643 -2.20329,-2.29415 -0.83286,-0.66629 -1.75658,-1.18872 -2.77115,-1.56729 -0.99943,-0.39371 -2.08215,-0.59057 -3.24816,-0.59057 -0.954,0 -1.93829,0.17414 -2.95286,0.52243 -1.01457,0.34829 -1.93829,0.84043 -2.77115,1.47643 -0.81772,0.62086 -1.49915,1.37043 -2.0443,2.24872 -0.53,0.87829 -0.795,1.83987 -0.795,2.88473 0,0.40886 0.0454,0.77986 0.13629,1.113 0.106,0.318 0.212,0.61329 0.318,0.88586 0.12114,0.27257 0.22714,0.53 0.318,0.77229 0.106,0.22714 0.159,0.46185 0.159,0.70414 0,0.43915 -0.15143,0.81015 -0.45429,1.11301 -0.28771,0.287714 -0.64357,0.431571 -1.06757,0.431571 -0.39371,0 -0.70414,-0.106 -0.93129,-0.318001 -0.22715,-0.212 -0.40886,-0.477 -0.54514,-0.795 -0.12115,-0.318 -0.20443,-0.65114 -0.24986,-0.99943 -0.0303,-0.36343 -0.0454,-0.68144 -0.0454,-0.95401 0,-1.33257 0.31043,-2.53643 0.93129,-3.61158 0.636,-1.09029 1.46129,-2.05943 2.47586,-2.90744 0.636,-0.54514 1.272,-1.02214 1.90801,-1.431 0.65115,-0.424 1.31743,-0.77229 1.99886,-1.04486 0.68143,-0.28772 1.39315,-0.49972 2.13515,-0.636 0.75715,-0.15143 1.55972,-0.22715 2.40772,-0.22715 1.96858,0 3.78573,0.34072 5.45145,1.02215 1.66572,0.66629 3.09672,1.60515 4.29301,2.81658 1.21143,1.19629 2.15029,2.62729 2.81658,4.29301 0.68143,1.65058 1.02215,3.46773 1.02215,5.451447 0,2.044292 -0.36343,3.959869 -1.09029,5.746732 -0.71172,1.77172 -1.71115,3.323868 -2.9983,4.656443 -1.272,1.317433 -2.78629,2.354722 -4.54287,3.111867 -1.75657,0.757145 -3.67215,1.135717 -5.74673,1.135717 -0.53,0 -1.06757,-0.03029 -1.61272,-0.09086 -0.54515,-0.06057 -1.08272,-0.136288 -1.61272,-0.227143 0.49972,3.422296 1.40829,6.799163 2.72572,10.130602 0.0454,0.121143 0.0833,0.242287 0.11358,0.36343 0.0454,0.136286 0.79379,0.196234 0.79379,0.317378 z"
       id="text1-24-9-1-2-6-0-8-8-6-53-5-6-6-9"
       transform="scale(1.0010168,0.99898422)"
       aria-label="P"
       sodipodi:nodetypes="cscccccscccccscscsccccccccsccssccsccscccccssccscccssssccscccccscccsccsssccccc" /><text
       xml:space="preserve"
       style="font-size:38.5273px;line-height:1.25;font-family:'Antykwa Torunska';-inkscape-font-specification:'Antykwa Torunska';letter-spacing:0px;word-spacing:0px;display:none;fill:#000000;stroke:none;stroke-width:0.264583;stroke-opacity:1"
       x="859.70184"
       y="-79.456787"
       id="text1-24-9-1-2-6-5-8-6-7-6-9-1-2-5"
       inkscape:export-filename="txe\dist\plume_small.png"
       inkscape:export-xdpi="200"
       inkscape:export-ydpi="200"
       transform="scale(0.99959656,1.0004036)"><tspan
         sodipodi:role="line"
         id="tspan1-8-8-0-5-9-4-0-7-6-9-0-9-7-1"
         style="font-style:normal;font-variant:normal;font-weight:normal;font-stretch:normal;font-family:Montez;-inkscape-font-specification:Montez;fill:#000000;stroke:none;stroke-width:0.264583;stroke-opacity:1"
         x="859.70184"
         y="-79.456787">lume</tspan></text><text
       xml:space="preserve"
       style="font-size:46.519px;line-height:1.25;font-family:'Antykwa Torunska';-inkscape-font-specification:'Antykwa Torunska';letter-spacing:0px;word-spacing:0px;display:none;fill:#000000;stroke:none;stroke-width:0.264581;stroke-opacity:1"
       x="832.3454"
       y="-81.192619"
       id="text1-24-9-1-2-6-0-8-8-6-53-5-6-6-9-7"
       transform="scale(1.0010168,0.99898423)"
       inkscape:export-filename="dist\text1-24-9-1-2-6-0-8-8-6-53-5-6-6.png"
       inkscape:export-xdpi="500"
       inkscape:export-ydpi="500"><tspan
         sodipodi:role="line"
         id="tspan1-8-8-0-5-9-3-1-2-1-1-5-7-7-3-1"
         style="font-style:normal;font-variant:normal;font-weight:normal;font-stretch:normal;font-family:Montez;-inkscape-font-specification:Montez;fill:#000000;stroke:none;stroke-width:0.264581;stroke-opacity:1"
         x="832.3454"
         y="-81.192619">P</tspan></text><path
       style="font-size:41.5144px;line-height:1.25;font-family:Montez;-inkscape-font-specification:Montez;letter-spacing:0px;word-spacing:0px;stroke-width:0.264581"
       d="m 919.6211,-74.275304 c 0,0.328193 0.18069,0.492288 0.54207,0.492288 0.23315,0 0.45463,-0.04687 0.66445,-0.140653 0.20983,-0.08205 0.40219,-0.175818 0.57703,-0.281306 0.36139,-0.19926 0.68197,-0.492287 0.96174,-0.879084 0.2681,-0.386796 0.50127,-0.832199 0.69943,-1.336206 0.18651,-0.504007 0.34971,-1.054899 0.4896,-1.652677 0.12831,-0.586055 0.23315,-1.18383 0.31474,-1.793329 0.0815,-0.609497 0.14572,-1.213134 0.19236,-1.810911 0.0468,-0.597776 0.064,-5.872274 -0.0175,-7.208481 -0.0815,-1.347927 -0.22732,-2.689992 -0.43715,-4.026197 -0.20983,-1.347925 -0.4896,-2.660686 -0.83932,-3.938288 -0.36138,-1.277614 -0.81601,-2.455588 -1.36391,-3.533922 0,0 0.37305,4.166854 0.55955,6.206334 0.17486,2.027743 0.26228,4.061358 0.26228,6.10083 0,0.750152 -0.0175,1.494442 -0.0525,2.232871 -0.0468,0.726708 -0.11077,1.453417 -0.19236,2.180126 -0.009,0.324804 -1.20654,6.229771 -2.22072,8.808413 -0.0351,0.09376 -0.064,0.187537 -0.0875,0.281308 -0.0351,0.105483 -0.0525,0.205119 -0.0525,0.298889 z"
       id="text1-24-9-1-2-6-0-8-8-6-53-5-6-6-9-9"
       aria-label="P"
       sodipodi:nodetypes="cscccccsscccccscccccc" /></g></svg>
